<?xml version="1.0" encoding="utf-8"?>
<!-- Uploaded to SVGRepo https://www.svgrepo.com -->
<!DOCTYPE svg PUBLIC "-//W3C//DTD SVG 1.1//EN" "http://www.w3.org/Graphics/SVG/1.1/DTD/svg11.dtd">
<svg width="1000px" height="1000px" viewBox="0 0 1000 1000" version="1.1" xmlns="http://www.w3.org/2000/svg" xmlns:xlink="http://www.w3.org/1999/xlink" x="0px" y="0px" enable-background="new 0 0 1000 1000" xml:space="preserve">
<metadata> Svg Vector Icons : http://www.onlinewebfonts.com/icon </metadata>
<g><g transform="translate(0.000000,511.000000) scale(0.100000,-0.100000)"><path d="M4910.9,4996c-640.9-77.1-1264-375.8-1774.4-848.6c-77.1-71.2-136.5-152.3-180-237.4c-59.3-120.7-63.3-144.4-63.3-330.4c0-195.8,2-201.8,87-375.8c73.2-146.4,120.7-209.7,286.8-377.8c257.2-259.1,393.6-330.3,635-332.3c189.9,0,278.9,23.7,441.1,122.6c162.2,98.9,290.8,225.5,431.2,425.3c318.5,456.9,737.8,761.6,1230.4,888.2c282.9,73.2,902,67.3,1000.9-7.9c53.4-43.5,180-546,233.4-923.8c35.6-271,31.7-888.2-11.9-1159.2C7078.9,869.7,6566.6,13.2,5787.2-578.3c-310.6-235.4-510.4-577.6-510.4-872.3c0-294.7,185.9-609.3,486.6-824.9c385.7-275,826.9-237.4,1258.1,108.8c152.3,120.7,534.1,530.1,771.5,824.9c338.3,421.3,696.3,1050.4,852.6,1501.4c148.4,427.3,225.5,923.8,203.7,1315.4c-55.4,975.2-524.2,1786.2-1501.4,2591.3c-85.1,71.2-201.8,166.2-257.2,213.6c-273,225.5-714.1,478.7-1028.6,585.5C5719.9,4984.2,5245.2,5037.6,4910.9,4996z M5585.4,4669.6c96.9-17.8,253.2-57.4,348.2-89c162.2-55.4,581.5-251.2,567.7-267.1c-4-4-104.9-15.8-225.5-27.7c-300.7-29.7-553.9-100.9-811-227.5c-369.9-182-676.5-451-915.9-799.2c-276.9-405.5-557.8-544-828.8-409.5c-130.5,65.3-371.9,318.5-453,474.8c-110.8,207.7-106.8,358,11.9,520.2c93,128.6,494.5,423.3,767.5,563.8c263.1,134.5,605.3,245.3,864.4,276.9C5067.1,4705.3,5427.2,4697.3,5585.4,4669.6z M7715.8,3298.8c557.8-615.2,824.9-1254.1,824.9-1970.2c-2-939.6-445.1-1887.1-1351-2892c-280.9-310.6-425.3-433.2-607.3-520.2c-152.3-73.2-399.6-73.2-544-4c-128.6,63.3-324.4,263.1-391.7,397.6c-136.5,275-9.9,609.3,328.3,860.5c199.8,148.4,474.8,413.4,648.8,619.2c484.6,579.6,755.6,1165.1,902,1942.5c55.4,296.7,49.5,1151.3-7.9,1477.7c-25.7,132.5-51.4,267-57.4,296.7l-13.9,55.4l65.3-55.4C7547.7,3474.9,7638.7,3381.9,7715.8,3298.8z"/><path d="M1914,2244.5c-383.8-47.5-690.4-348.2-755.6-739.8c-69.2-411.4,186-834.8,585.5-971.3l91-31.7V-869.1v-1372.8l45.5-51.4c43.5-51.4,63.3-55.4,943.6-170.1c494.5-63.3,911.9-118.7,927.7-120.7c21.8-5.9,136.5-354.1,379.8-1169.1c45.5-156.3,93-211.7,176-211.7c73.2,0,158.3,77.2,158.3,142.4c-2,91-429.3,1444-468.8,1483.6c-35.6,33.6-160.2,55.4-927.7,156.3c-488.6,63.3-894.1,116.7-902,116.7c-9.9,0-15.8,284.9-15.8,633c0,348.2,5.9,633,13.8,633c5.9,0,453-89,989.1-197.8c538-108.8,1008.8-197.8,1044.5-197.8c150.3,0,201.8,205.7,69.2,276.9c-29.7,15.8-2063.2,435.2-2108.7,435.2c-3.9,0-7.9,13.9-7.9,29.7c0,15.8,13.8,29.7,31.7,29.7c17.8,0,516.3,166.2,1107.7,367.9c591.5,201.8,1084,364,1093.9,360c9.9-2,81.1-87,158.3-187.9c77.1-100.9,158.3-191.9,182-203.8c53.4-29.7,150.3-5.9,185.9,45.5c65.3,93,47.5,126.6-407.5,720c-534.1,694.3-520.2,678.5-611.2,678.5c-77.1,0-124.6-35.6-146.4-112.8c-17.8-59.3,2-93,219.6-375.8c100.9-132.5,189.9-253.2,195.8-269c7.9-19.8-233.4-110.8-985.1-367.9c-547.9-186-1000.9-338.3-1008.8-338.3c-9.9,0-15.8,132.5-15.8,294.7v296.7l114.7,31.7c170.1,49.5,292.8,124.6,409.5,251.2c195.8,209.7,276.9,476.7,229.5,745.8C2818,1993.3,2396.7,2305.8,1914,2244.5z M2206.8,1920.1c144.4-43.5,304.6-195.8,358-338.3c110.8-290.8-9.9-597.4-288.8-731.9c-373.9-184-817,96.9-817,518.3c0,166.2,63.3,306.6,189.9,421.3C1813.1,1939.8,1995.1,1983.4,2206.8,1920.1z"/><path d="M4972.2-3575.2c-91-91-49.5-235.4,71.2-259.2c25.7-3.9,187.9-17.8,362-31.6c174.1-11.9,437.1-39.6,583.5-61.3c437.2-65.3,852.6-184,822.9-233.4c-19.8-31.6-207.7-94.9-447-148.4c-983.1-219.6-2822.8-229.4-3871.2-21.7c-221.5,45.5-508.4,132.5-546,168.1c-23.7,21.7,164.2,96.9,377.8,150.3c197.8,51.4,621.1,116.7,892.1,138.5c185.9,15.8,259.1,59.3,259.1,154.3c0,142.4-73.2,176-330.3,150.3c-981.1-100.9-1493.5-275-1541-524.2c-47.5-253.2,245.3-433.2,896.1-553.9c625.1-116.7,1574.6-168.1,2405.4-130.5c1254.1,53.4,1944.5,197.8,2175.9,455c61.3,67.2,73.2,94.9,73.2,168.1c0,134.5-69.2,213.6-288.8,320.4c-288.8,142.4-862.5,245.3-1633.9,294.8C5025.6-3525.7,5021.6-3525.7,4972.2-3575.2z"/></g></g>
</svg>