<?xml version="1.0" encoding="iso-8859-1"?>
<!-- Generator: Adobe Illustrator 19.0.0, SVG Export Plug-In . SVG Version: 6.00 Build 0)  -->
<svg version="1.1" id="Layer_1" xmlns="http://www.w3.org/2000/svg" xmlns:xlink="http://www.w3.org/1999/xlink" x="0px" y="0px"
	 viewBox="0 0 491.519 491.519" style="enable-background:new 0 0 491.519 491.519;" xml:space="preserve">
<g>
	<g>
		<path d="M314.906,315.318c0-11.236-1.508-22.095-4.071-32.542l35.631-28.98l-30.689-53.156l-42.892,16.357
			c-15.686-15.059-34.936-26.38-56.395-32.593l-7.275-45.287h-61.379l-7.273,45.287c-21.46,6.214-40.708,17.534-56.396,32.593
			l-42.892-16.358l-30.689,53.156l35.632,28.981c-2.562,10.446-4.07,21.305-4.07,32.541c0,11.236,1.508,22.095,4.07,32.541
			l-35.632,28.983l30.689,53.156l42.892-16.358c15.688,15.058,34.936,26.378,56.396,32.593l7.273,45.287h61.379l7.274-45.287
			c21.46-6.214,40.71-17.535,56.396-32.593l42.892,16.358l30.689-53.156l-35.631-28.982
			C313.398,337.413,314.906,326.554,314.906,315.318z M178.526,394.456c-43.708,0-79.138-35.431-79.138-79.138
			c0-43.708,35.431-79.139,79.138-79.139c43.708,0,79.139,35.431,79.139,79.139S222.234,394.456,178.526,394.456z"/>
	</g>
</g>
<g>
	<g>
		<path d="M460.688,113.021c0-7.207-0.967-14.173-2.61-20.873l22.855-18.59l-19.685-34.095l-27.512,10.492
			c-10.062-9.659-22.409-16.921-36.174-20.906L392.895,0h-39.37l-4.666,29.049c-13.764,3.986-26.112,11.247-36.174,20.906
			l-27.511-10.492l-19.686,34.095l22.856,18.59c-1.643,6.701-2.611,13.666-2.611,20.873c0,7.208,0.968,14.173,2.611,20.873
			l-22.856,18.589l19.686,34.096l27.511-10.492c10.062,9.66,22.41,16.921,36.174,20.906l4.666,29.049h39.37l4.666-29.049
			c13.765-3.986,26.113-11.247,36.174-20.906l27.512,10.492l19.685-34.096l-22.855-18.589
			C459.721,127.194,460.688,120.229,460.688,113.021z M373.21,163.784c-28.036,0-50.763-22.727-50.763-50.762
			c0-28.034,22.727-50.762,50.763-50.762c28.034,0,50.762,22.727,50.762,50.762C423.972,141.057,401.245,163.784,373.21,163.784z"/>
	</g>
</g>
<g>
</g>
<g>
</g>
<g>
</g>
<g>
</g>
<g>
</g>
<g>
</g>
<g>
</g>
<g>
</g>
<g>
</g>
<g>
</g>
<g>
</g>
<g>
</g>
<g>
</g>
<g>
</g>
<g>
</g>
</svg>
