<svg width="96" height="96" viewBox="0 0 96 96" fill="none" xmlns="http://www.w3.org/2000/svg">
<path d="M27.04 19.36L19.84 12.2L14.2 17.84L21.36 25L27.04 19.36ZM16 42H4V50H16V42ZM52 2.20001H44V14H52V2.20001V2.20001ZM81.8 17.84L76.16 12.2L69 19.36L74.64 25L81.8 17.84ZM68.96 72.64L76.12 79.84L81.76 74.2L74.56 67.04L68.96 72.64ZM80 42V50H92V42H80ZM48 22C34.76 22 24 32.76 24 46C24 59.24 34.76 70 48 70C61.24 70 72 59.24 72 46C72 32.76 61.24 22 48 22ZM44 89.8H52V78H44V89.8ZM14.2 74.16L19.84 79.8L27 72.6L21.36 66.96L14.2 74.16Z" fill="white"/>
</svg>
